<svg width="30" height="31" viewBox="0 0 30 31" fill="none" xmlns="http://www.w3.org/2000/svg">
<path d="M23.6636 7.80183C22.0701 7.0707 20.3614 6.53204 18.5749 6.22352C18.5424 6.21757 18.5099 6.23245 18.4931 6.26221C18.2733 6.65306 18.0299 7.16295 17.8595 7.56373C15.9379 7.27605 14.0262 7.27605 12.1441 7.56373C11.9736 7.15404 11.7213 6.65306 11.5006 6.26221C11.4838 6.23344 11.4513 6.21856 11.4188 6.22352C9.63324 6.53105 7.92454 7.06971 6.33014 7.80183C6.31634 7.80778 6.30451 7.81771 6.29666 7.83059C3.05562 12.6726 2.16776 17.3957 2.60331 22.0601C2.60528 22.083 2.61809 22.1048 2.63583 22.1187C4.77418 23.689 6.84553 24.6424 8.87842 25.2743C8.91095 25.2842 8.94542 25.2723 8.96613 25.2455C9.44701 24.5888 9.87567 23.8964 10.2432 23.1682C10.2649 23.1256 10.2442 23.075 10.1999 23.0581C9.51993 22.8002 8.8725 22.4857 8.24972 22.1286C8.20046 22.0998 8.19651 22.0294 8.24183 21.9956C8.37289 21.8974 8.50398 21.7952 8.62912 21.6921C8.65176 21.6732 8.68331 21.6693 8.70993 21.6812C12.8013 23.5492 17.2308 23.5492 21.2739 21.6812C21.3005 21.6683 21.3321 21.6723 21.3557 21.6911C21.4809 21.7943 21.6119 21.8974 21.744 21.9956C21.7893 22.0294 21.7863 22.0998 21.7371 22.1286C21.1143 22.4926 20.4669 22.8002 19.7859 23.0571C19.7416 23.074 19.7219 23.1256 19.7436 23.1682C20.119 23.8953 20.5477 24.5878 21.0197 25.2445C21.0394 25.2723 21.0749 25.2842 21.1074 25.2743C23.1501 24.6424 25.2215 23.689 27.3598 22.1187C27.3786 22.1048 27.3904 22.0839 27.3924 22.0611C27.9136 16.6685 26.5193 11.9842 23.6961 7.83158C23.6892 7.81771 23.6774 7.80778 23.6636 7.80183ZM10.8542 19.22C9.62239 19.22 8.60743 18.0891 8.60743 16.7002C8.60743 15.3114 9.60271 14.1805 10.8542 14.1805C12.1155 14.1805 13.1206 15.3213 13.1009 16.7002C13.1009 18.0891 12.1056 19.22 10.8542 19.22ZM19.1612 19.22C17.9294 19.22 16.9145 18.0891 16.9145 16.7002C16.9145 15.3114 17.9097 14.1805 19.1612 14.1805C20.4225 14.1805 21.4276 15.3213 21.408 16.7002C21.408 18.0891 20.4225 19.22 19.1612 19.22Z" fill="white"/>
</svg>
