<svg width="47" height="44" viewBox="0 0 47 44" fill="none" xmlns="http://www.w3.org/2000/svg">
<g clip-path="url(#clip0_130_496)">
<path d="M15.391 32.0007L16.2129 31.2752C16.8106 30.7492 17.4683 30.2955 18.1723 29.9236C19.7319 29.1006 21.1677 28.9089 22.2159 28.777L22.2534 28.7719C23.0507 28.6716 23.8537 28.6234 24.6573 28.6278C25.1717 28.6278 25.6212 28.644 25.9845 28.6562C26.4502 28.6724 26.7963 28.6958 27.1342 28.7191C27.6537 28.7536 28.1915 28.7902 29.0438 28.7902H29.2366C31.1219 28.779 32.0727 28.6166 32.92 28.3772L32.9981 28.3548C32.2463 30.6787 31.7629 33.0809 31.5572 35.5146C31.4668 36.5967 31.238 37.6627 30.8764 38.6865C29.6658 42.0087 27.258 43.6322 23.744 43.6322C19.5482 43.6322 16.5021 40.5749 16.0556 36.1427C15.9167 34.75 15.6948 33.3669 15.391 32.0007Z" fill="white"/>
<path d="M3.18515 1.95329C6.41495 -0.326749 9.9664 -0.266882 12.8248 2.37033C15.322 4.66762 17.942 6.60164 21.4204 6.94156C25.606 7.34745 29.3127 6.24852 32.5283 3.44388C33.7693 2.36018 35.1087 1.16385 36.6105 0.64838C41.8372 -1.13851 45.2679 0.736659 46.7575 6.66354C47.5145 9.67923 46.5211 12.1531 43.8859 14.0029C39.4022 17.1505 36.1383 21.0026 34.094 25.5593C33.1484 25.8134 32.1831 25.9869 31.2082 26.0778C29.7399 26.2169 28.6877 26.1265 24.5446 25.6161C21.3412 25.2204 20.6705 25.0591 19.2682 25.0875C17.8034 25.1201 16.3455 25.2986 14.9161 25.6202C14.4278 25.7798 13.9502 25.9706 13.4864 26.1915C11.1925 21.0551 7.48478 16.7605 2.36324 13.3078C1.60323 12.7944 0.951787 11.9065 0.595627 11.0491C-0.0763625 9.46519 -0.185911 7.69899 0.285199 6.0442C0.756309 4.3894 1.77969 2.94574 3.18515 1.95329Z" fill="white"/>
<path d="M13.4823 26.1915C13.9475 25.9704 14.4264 25.7796 14.9161 25.6202C16.3463 25.2998 17.8049 25.1227 19.2702 25.0916C20.6746 25.0631 21.3453 25.2245 24.5467 25.6202C28.6897 26.1276 29.7419 26.2209 31.2102 26.0819C32.1845 25.9895 33.1492 25.8147 34.094 25.5593C34.0936 25.562 34.0936 25.5648 34.094 25.5674C33.5366 25.8677 32.9479 26.1058 32.3386 26.2777C31.6709 26.4665 30.8946 26.5974 29.2376 26.6075C27.7825 26.6156 27.3604 26.5192 26.0707 26.4756C25.1514 26.4442 23.6294 26.3924 21.9805 26.6075C20.8359 26.7567 19.0906 26.9769 17.1647 27.9936C16.3072 28.4449 15.5066 28.9971 14.7802 29.6384C14.4188 28.4639 13.9854 27.3127 13.4823 26.1915Z" fill="#EFEFEF"/>
<path d="M6.53571 43.6637V30.847H9.14552V41.4861H15.6325V43.6637H6.53571Z" fill="white"/>
<path d="M41.7043 38.6977L44.2339 39.5003C43.8463 40.9108 43.2016 41.9593 42.2999 42.6459C41.3982 43.3325 40.2526 43.6738 38.8631 43.6698C37.1476 43.6698 35.7371 43.0836 34.6318 41.9113C33.5264 40.739 32.9751 39.1361 32.9778 37.1026C32.9778 34.9514 33.5332 33.2809 34.644 32.091C35.7547 30.9011 37.2149 30.3061 39.0244 30.3061C40.6053 30.3061 41.8906 30.7736 42.8803 31.7084C43.4675 32.2604 43.9072 33.0536 44.1994 34.0879L41.614 34.7028C41.4945 34.0754 41.154 33.5115 40.6543 33.1136C40.1546 32.7158 39.5288 32.5103 38.8905 32.5344C37.9326 32.5344 37.1547 32.8784 36.5567 33.5664C35.9587 34.2543 35.6607 35.3678 35.6627 36.9068C35.6627 38.5404 35.9563 39.704 36.5435 40.3973C37.1307 41.0907 37.8947 41.4374 38.8357 41.4374C39.4941 41.4505 40.1331 41.2142 40.6246 40.7758C41.1266 40.3368 41.4864 39.6441 41.7043 38.6977Z" fill="white"/>
</g>
<defs>
<clipPath id="clip0_130_496">
<rect width="47" height="43.6697" fill="white"/>
</clipPath>
</defs>
</svg>
