<svg width="30" height="31" viewBox="0 0 30 31" fill="none" xmlns="http://www.w3.org/2000/svg">
<path fill-rule="evenodd" clip-rule="evenodd" d="M27.5 15.5C27.5 22.4036 21.9036 28 15 28C8.09644 28 2.5 22.4036 2.5 15.5C2.5 8.59644 8.09644 3 15 3C21.9036 3 27.5 8.59644 27.5 15.5ZM15.4479 12.2281C14.2321 12.7338 11.8022 13.7804 8.1582 15.3681C7.56647 15.6034 7.2565 15.8336 7.22828 16.0587C7.18059 16.4391 7.65697 16.5889 8.30568 16.7929C8.39392 16.8206 8.48535 16.8494 8.57908 16.8798C9.21731 17.0873 10.0758 17.33 10.5222 17.3396C10.927 17.3484 11.3789 17.1815 11.8777 16.8389C15.2824 14.5406 17.04 13.379 17.1503 13.3539C17.2281 13.3363 17.336 13.3141 17.4091 13.379C17.4822 13.444 17.475 13.567 17.4673 13.6C17.4201 13.8012 15.5501 15.5397 14.5824 16.4394C14.2807 16.7198 14.0667 16.9188 14.023 16.9642C13.925 17.066 13.8251 17.1623 13.7291 17.2548C13.1362 17.8264 12.6916 18.255 13.7537 18.955C14.2642 19.2914 14.6726 19.5695 15.0801 19.847C15.5251 20.1501 15.969 20.4524 16.5433 20.8288C16.6896 20.9248 16.8294 21.0244 16.9655 21.1214C17.4834 21.4906 17.9487 21.8223 18.5235 21.7694C18.8575 21.7387 19.2025 21.4246 19.3778 20.4879C19.7919 18.2741 20.6058 13.4776 20.794 11.501C20.8104 11.3279 20.7897 11.1062 20.7731 11.0089C20.7564 10.9117 20.7216 10.773 20.5951 10.6704C20.4454 10.5489 20.2142 10.5233 20.1108 10.5251C19.6406 10.5334 18.9193 10.7842 15.4479 12.2281Z" fill="white"/>
</svg>
