<svg width="30" height="31" viewBox="0 0 30 31" fill="none" xmlns="http://www.w3.org/2000/svg">
<path d="M24.9406 10.1501C24.9558 10.3705 24.9558 10.5909 24.9558 10.8133C24.9558 17.5907 19.7964 25.4071 10.3621 25.4071V25.403C7.57516 25.4071 4.84613 24.6088 2.5 23.1036C2.90524 23.1523 3.31251 23.1767 3.7208 23.1777C6.03037 23.1798 8.27392 22.4048 10.0909 20.9778C7.8961 20.9362 5.97146 19.5052 5.29911 17.416C6.06795 17.5643 6.86015 17.5338 7.61477 17.3276C5.22192 16.8442 3.50041 14.7418 3.50041 12.3002C3.50041 12.2779 3.50041 12.2565 3.50041 12.2352C4.21339 12.6323 5.01168 12.8527 5.82826 12.8771C3.57455 11.3709 2.87985 8.37273 4.24081 6.02863C6.84491 9.23298 10.6871 11.181 14.8116 11.3871C14.3982 9.60572 14.9629 7.73897 16.2955 6.48668C18.3613 4.54478 21.6103 4.64431 23.5522 6.70911C24.7009 6.48262 25.8018 6.06113 26.8094 5.46393C26.4265 6.65122 25.6251 7.65975 24.5546 8.30062C25.5713 8.18077 26.5646 7.90858 27.5 7.49318C26.8114 8.52507 25.944 9.42392 24.9406 10.1501Z" fill="white"/>
</svg>
